<?xml version="1.0" encoding="utf-8"?>
<!-- Generator: Adobe Illustrator 21.0.0, SVG Export Plug-In . SVG Version: 6.00 Build 0)  -->
<svg version="1.1" id="图层_1" xmlns="http://www.w3.org/2000/svg" xmlns:xlink="http://www.w3.org/1999/xlink" x="0px" y="0px"
	 viewBox="0 0 32 32" style="enable-background:new 0 0 32 32;" xml:space="preserve">
<style type="text/css">
	.st0{fill:#3393F2;}
</style>
<path class="st0" d="M30.1,2.1H1.9C1,2.1,0.3,2.9,0.3,3.8v18.4h31.5V3.8C31.8,2.9,31,2.1,30.1,2.1L30.1,2.1z M21.3,19.1H10.7
	c-2.2,0-4-1.8-4-4s1.8-4,4-4c0,0,0,0,0.1,0c0.4-2.5,2.6-4.5,5.3-4.5s4.8,1.9,5.3,4.5c0,0,0,0,0.1,0c2.2,0,4,1.8,4,4
	C25.3,17.3,23.5,19.1,21.3,19.1z M0.3,24.9c0,0.9,0.7,1.7,1.7,1.7h13.3v2.5H8.2c-0.5,0-0.8,0.4-0.8,0.8s0.4,0.8,0.8,0.8h15.5
	c0.5,0,0.8-0.4,0.8-0.8s-0.4-0.8-0.8-0.8h-6.9v-2.5h13.3c0.9,0,1.7-0.7,1.7-1.7v-1.5H0.3V24.9z"/>
</svg>
